<svg xmlns="http://www.w3.org/2000/svg" viewBox="0 0 63.63 63.63"><defs><style>.cls-1{fill:#c9a92d;}.cls-2{fill:none;stroke:#c9a92d;stroke-miterlimit:10;stroke-width:5px;}</style></defs><g id="Layer_2" data-name="Layer 2"><g id="Layer_1-2" data-name="Layer 1"><path class="cls-1" d="M47.2,45.53l-5.69-5.87a2.28,2.28,0,0,0-3.16-.37l-7,4.34a23.4,23.4,0,0,1-9.7-18.42l6.61-2.39a2.28,2.28,0,0,0,1.66-2.71L28.84,12a2.29,2.29,0,0,0-2.31-2.18l-6.61.88a2.06,2.06,0,0,0-1.63,1.76,28.67,28.67,0,0,0,1,26c4.72,8.77,13,14.22,21.48,15.22a2.45,2.45,0,0,0,.84.1h.06a1.78,1.78,0,0,0,1-.47l4.78-4.64A2.27,2.27,0,0,0,47.2,45.53Z"/><circle class="cls-2" cx="31.82" cy="31.82" r="29.32"/></g></g></svg>