<svg width="682" height="682" viewBox="0 0 682 682" fill="none" xmlns="http://www.w3.org/2000/svg">
<path d="M647.2 187.049C639.833 159.658 618.236 138.065 590.849 130.69C540.816 117 340.68 117 340.68 117C340.68 117 140.551 117 90.518 130.171C63.6575 137.539 41.5346 159.661 34.1668 187.049C21 237.078 21 340.832 21 340.832C21 340.832 21 445.109 34.1668 494.615C41.5424 522.003 63.1307 543.595 90.5219 550.97C141.078 564.664 340.687 564.664 340.687 564.664C340.687 564.664 540.816 564.664 590.849 551.493C618.24 544.122 639.833 522.529 647.208 495.142C660.371 445.109 660.371 341.359 660.371 341.359C660.371 341.359 660.898 237.078 647.2 187.049ZM276.961 436.684V244.98L443.384 340.832L276.961 436.684Z" fill="#CEB04E"/>
</svg>
